<svg width="169" height="84" fill="none" xmlns="http://www.w3.org/2000/svg"><path d="M153 0H16C7.163 0 0 7.163 0 16v52c0 8.837 7.163 16 16 16h137c8.837 0 16-7.163 16-16V16c0-8.837-7.163-16-16-16z" fill="#491F98"/><path d="M50.322 41.182h2.011l.017-1.969c3.69-.281 5.83-2.242 5.839-5.199-.009-2.906-2.2-4.449-5.233-5.13l-.503-.12.034-4.261c1.133.264 1.824.988 1.926 2.062h3.537c-.043-2.82-2.148-4.84-5.429-5.199l.017-2.003h-2.011l-.017 1.986c-3.333.324-5.685 2.336-5.668 5.242-.008 2.574 1.807 4.048 4.756 4.755l.818.205-.043 4.509c-1.389-.265-2.326-1.117-2.42-2.54h-3.571c.085 3.443 2.343 5.37 5.957 5.684l-.017 1.978zm2.063-5.122l.034-3.98c1.32.417 2.037.954 2.045 1.926-.008 1.03-.792 1.798-2.08 2.054zm-1.944-7.816c-1.065-.366-1.832-.92-1.815-1.9 0-.912.648-1.62 1.85-1.867l-.035 3.767zm17.962-6.699h-3.47l-4.32 2.736v3.273l3.997-2.506h.102V39h3.69V21.545zm10.763 17.694c3.886 0 6.528-2.532 6.52-6.06.008-3.341-2.327-5.744-5.472-5.744-1.534 0-2.855.639-3.469 1.5h-.102l.452-4.373h7.628v-3.017h-10.67l-.827 9.205 3.281.588c.537-.725 1.576-1.176 2.608-1.176 1.755.008 3.017 1.278 3.017 3.11 0 1.816-1.236 3.069-2.966 3.069-1.466 0-2.65-.92-2.736-2.276h-3.58c.069 3.017 2.702 5.174 6.316 5.174zm10.951-.017c1.091 0 2.037-.912 2.045-2.046-.008-1.116-.954-2.028-2.045-2.028-1.125 0-2.054.912-2.046 2.028a2.041 2.041 0 002.046 2.046zm11.145.017c3.92 0 6.724-2.156 6.716-5.14.008-2.173-1.373-3.724-3.938-4.048v-.136c1.952-.35 3.298-1.73 3.29-3.69.008-2.753-2.404-4.918-6.017-4.918-3.58 0-6.273 2.097-6.324 5.114h3.537c.042-1.33 1.26-2.19 2.77-2.19 1.491 0 2.488.903 2.48 2.215.008 1.372-1.159 2.301-2.838 2.301H99.31v2.71h1.628c1.977 0 3.213.99 3.204 2.395.009 1.39-1.184 2.344-2.872 2.344-1.628 0-2.846-.852-2.915-2.13h-3.716c.06 3.05 2.787 5.173 6.623 5.173zM110.87 39h12.443v-3.017h-7.329v-.12l2.548-2.496c3.588-3.273 4.551-4.91 4.551-6.895 0-3.026-2.471-5.165-6.213-5.165-3.665 0-6.179 2.19-6.17 5.616h3.503c-.009-1.67 1.048-2.693 2.642-2.693 1.534 0 2.676.955 2.676 2.489 0 1.39-.852 2.344-2.438 3.87l-6.213 5.752v2.66z" fill="#fff"/><path d="M33.61 64h1.409v-4.25h2.545c2.71 0 3.932-1.648 3.932-3.705 0-2.056-1.222-3.681-3.955-3.681H33.61V64zm1.409-5.5v-4.886h2.477c1.892 0 2.613 1.034 2.613 2.431 0 1.398-.721 2.455-2.59 2.455h-2.5zm8.725 5.5h1.34v-5.523c0-1.181.933-2.045 2.205-2.045.358 0 .728.068.819.09V55.16a12.855 12.855 0 00-.705-.023c-1.045 0-1.954.591-2.273 1.455h-.09v-1.318h-1.296V64zm6.113 0h1.34v-8.727h-1.34V64zm.682-10.182c.523 0 .954-.409.954-.909S51.062 52 50.54 52c-.523 0-.955.41-.955.91s.432.908.955.908zm6.821 10.364c1.931 0 3.204-1.182 3.431-2.727h-1.34c-.25.954-1.046 1.522-2.092 1.522-1.59 0-2.613-1.318-2.613-3.34 0-1.978 1.045-3.273 2.613-3.273 1.182 0 1.887.727 2.091 1.523h1.341c-.227-1.637-1.613-2.728-3.454-2.728-2.364 0-3.932 1.864-3.932 4.523 0 2.614 1.5 4.5 3.954 4.5zm9.21 0c1.773 0 3.069-.886 3.478-2.205l-1.296-.363c-.34.909-1.13 1.363-2.182 1.363-1.573 0-2.659-1.017-2.721-2.886h6.335v-.568c0-3.25-1.932-4.364-3.75-4.364-2.364 0-3.932 1.864-3.932 4.546 0 2.681 1.546 4.477 4.068 4.477zm-2.721-5.25c.09-1.358 1.051-2.568 2.585-2.568 1.455 0 2.386 1.09 2.386 2.568h-4.97zM77.044 64h1.341v-8.727h-1.341V64zm.682-10.182c.522 0 .954-.409.954-.909S78.248 52 77.726 52c-.523 0-.955.41-.955.91s.432.908.955.908zm4.616 4.932c0-1.523.943-2.386 2.227-2.386 1.244 0 2 .812 2 2.182V64h1.341v-5.545c0-2.228-1.188-3.296-2.955-3.296-1.318 0-2.136.591-2.545 1.477h-.114v-1.363h-1.295V64h1.341v-5.25zm16.134 5.432c1.681 0 2.25-1.046 2.545-1.523h.159v1.34h1.296V52.364h-1.341v4.296h-.114c-.295-.455-.818-1.5-2.523-1.5-2.204 0-3.727 1.75-3.727 4.5 0 2.773 1.523 4.523 3.705 4.523zm.181-1.205c-1.681 0-2.545-1.477-2.545-3.34 0-1.842.841-3.273 2.545-3.273 1.637 0 2.5 1.318 2.5 3.272 0 1.977-.886 3.341-2.5 3.341zm10.166 1.205c2.364 0 3.955-1.796 3.955-4.5 0-2.727-1.591-4.523-3.955-4.523s-3.955 1.796-3.955 4.523c0 2.704 1.591 4.5 3.955 4.5zm0-1.205c-1.795 0-2.614-1.545-2.614-3.295s.819-3.318 2.614-3.318 2.614 1.568 2.614 3.318-.819 3.295-2.614 3.295zm7.502-10.613h-1.341V64h1.341V52.364zm3.957 0h-1.341V64h1.341V52.364zm5.184 11.841c1.523 0 2.319-.819 2.591-1.387h.068V64h1.341v-5.75c0-2.773-2.113-3.09-3.227-3.09-1.318 0-2.818.454-3.5 2.045l1.273.454c.295-.636.994-1.318 2.273-1.318 1.233 0 1.84.653 1.84 1.773v.045c0 .648-.659.591-2.25.796-1.619.21-3.386.568-3.386 2.568 0 1.704 1.318 2.682 2.977 2.682zm.205-1.205c-1.068 0-1.841-.477-1.841-1.409 0-1.023.932-1.34 1.977-1.477.568-.068 2.091-.227 2.318-.5v1.227c0 1.09-.863 2.16-2.454 2.16zm6.403 1h1.341v-5.523c0-1.181.932-2.045 2.204-2.045.358 0 .728.068.818.09V55.16a12.815 12.815 0 00-.704-.023c-1.046 0-1.955.591-2.273 1.455h-.091v-1.318h-1.295V64z" fill="#F2F2F2"/></svg>