<svg width="1440" height="640" fill="none" xmlns="http://www.w3.org/2000/svg"><mask id="mask0_122_5" style="mask-type:alpha" maskUnits="userSpaceOnUse" x="0" y="0" width="1440" height="640"><path fill="#C4C4C4" d="M0 0h1440v640H0z"/></mask><g mask="url(#mask0_122_5)"><path transform="rotate(60 461.326 232.799)" fill="url(#paint0_linear_122_5)" d="M461.326 232.799h120v997.881h-120z"/><path d="M1480.17-19.417a129.965 129.965 0 0112.98 98.647 129.984 129.984 0 01-60.57 78.937 129.99 129.99 0 01-98.64 12.987 129.993 129.993 0 01-78.94-60.571l112.58-65 112.59-65z" fill="url(#paint1_linear_122_5)"/><path d="M1526 493a119.98 119.98 0 01-35.15 84.853A119.98 119.98 0 011406 613a119.98 119.98 0 01-84.85-35.147A119.98 119.98 0 011286 493h48a72.013 72.013 0 0021.09 50.912A71.986 71.986 0 001406 565c19.1 0 37.41-7.586 50.91-21.088A72.013 72.013 0 001478 493h48z" fill="url(#paint2_linear_122_5)"/></g><defs><linearGradient id="paint0_linear_122_5" x1="521.326" y1="579.558" x2="521.326" y2="1230.68" gradientUnits="userSpaceOnUse"><stop stop-color="#fff" stop-opacity="0"/><stop offset="1" stop-color="#fff" stop-opacity=".1"/></linearGradient><linearGradient id="paint1_linear_122_5" x1="1275.28" y1="127.05" x2="1443.42" y2="127.05" gradientUnits="userSpaceOnUse"><stop stop-color="#fff" stop-opacity=".08"/><stop offset="1" stop-color="#35068C" stop-opacity=".01"/></linearGradient><linearGradient id="paint2_linear_122_5" x1="1294.61" y1="515.526" x2="1429.02" y2="593.126" gradientUnits="userSpaceOnUse"><stop offset=".063" stop-color="#fff" stop-opacity=".08"/><stop offset="1" stop-color="#fff" stop-opacity="0"/></linearGradient></defs></svg>