<svg width="44" height="44" fill="none" xmlns="http://www.w3.org/2000/svg"><path d="M22 44c12.15 0 22-9.85 22-22S34.15 0 22 0 0 9.85 0 22s9.85 22 22 22z" fill="#252540"/><path d="M20.727 30.85a8.955 8.955 0 01-7.641-8.862 8.955 8.955 0 017.64-8.863V8.461c-6.882.659-12.265 6.463-12.265 13.527 0 7.063 5.383 12.868 12.266 13.526v-4.663zm8.971-17.65l-.12.408v11.845l.12.12 5.498-3.25-5.498-9.123z" fill="#fff"/><path d="M29.698 13.2L24.2 22.323l5.498 3.25V13.2zm0 14.162l-.067.082v4.22l.067.197 5.502-7.748-5.502 3.249z" fill="#fff"/><path d="M29.698 31.861v-4.5L24.2 24.114l5.498 7.748zm0-6.288l5.498-3.25-5.498-2.5v5.75z" fill="#fff"/><path d="M24.2 22.323l5.498 3.25v-5.75l-5.498 2.5z" fill="#fff"/></svg>